<svg xmlns="http://www.w3.org/2000/svg" viewBox="0 0 512 512">
  <defs>
    <linearGradient id="iconBgGrad" x1="0%" y1="0%" x2="0%" y2="100%">
      <stop offset="0%" stop-color="#FFA836" />
      <stop offset="100%" stop-color="#E86E00" />
    </linearGradient>
  </defs>
  <rect x="0" y="0" width="512" height="512" rx="115" fill="url(#iconBgGrad)" />
  <g transform="translate(56, 56) scale(2)">
    <rect x="88" y="50" width="24" height="40" rx="10" fill="url(#iconBgGrad)" stroke="#FFFFFF" stroke-width="18" />
  </g>
  <g fill="none" stroke="#FFFFFF" stroke-width="18" stroke-linecap="round" stroke-linejoin="round" transform="translate(56, 56) scale(2)">
    <path d="M 42 100 A 68 38 0 0 1 88 62" />
    <path d="M 112 62 A 68 38 0 0 1 158 100" />
    <rect x="35" y="100" width="130" height="12" rx="6" />
    <path d="M 48 128 L 152 128 L 152 166 L 140 166 L 100 152 L 60 166 L 48 166 Z" />
    <line x1="36" y1="134" x2="36" y2="158" />
    <line x1="164" y1="134" x2="164" y2="158" />
  </g>
</svg>
